<svg xmlns="http://www.w3.org/2000/svg" viewBox="0 0 32 32"><path d="M2.78,25.57V30a1,1,0,0,0,1,1H28.22a1,1,0,0,0,1-1V25.57a1,1,0,0,0,.89-1V19.18a1,1,0,0,0-1-1H27.33V17h1.78a1,1,0,0,0,1-1V14.29A13.31,13.31,0,0,0,16.81,1H15.19A13.31,13.31,0,0,0,1.89,14.29V16a1,1,0,0,0,1,1h.71v1.15H2.89a1,1,0,0,0-1,1v5.41A1,1,0,0,0,2.78,25.57ZM27.22,29H4.78V25.59H27.22Zm.89-5.41H3.89V20.18H17l3.68,2.73a1,1,0,0,0,.29.15H21a1,1,0,0,0,.22,0h0a1,1,0,0,0,.19,0l.13,0a1,1,0,0,0,.29-.16l3.43-2.71h2.8ZM3.89,14.29A11.3,11.3,0,0,1,15.19,3h1.63A11.3,11.3,0,0,1,28.11,14.29V15H3.89ZM5.61,17H25.33v1.15H25a1,1,0,0,0-.62.22l-3.1,2.45-3.33-2.47a1,1,0,0,0-.6-.2H5.61Z" data-name="Layer 2"/></svg>