<svg id="SvgjsSvg1001" width="288" height="288" xmlns="http://www.w3.org/2000/svg" version="1.1" xmlns:xlink="http://www.w3.org/1999/xlink" xmlns:svgjs="http://svgjs.com/svgjs"><defs id="SvgjsDefs1002"></defs><g id="SvgjsG1008" transform="matrix(1,0,0,1,0,0)"><svg xmlns="http://www.w3.org/2000/svg" data-name="Layer 1" viewBox="0 0 64 64" width="288" height="288"><path fill="none" stroke="#ffffff" stroke-linecap="round" stroke-linejoin="round" stroke-width="3" d="M28.78,6.48h6.43a26.6,26.6,0,0,1,26.6,26.6v0a2,2,0,0,1-2,2H4.16a2,2,0,0,1-2-2v0A26.6,26.6,0,0,1,28.78,6.48Z" class="colorStroke222 svgStroke"></path><rect width="53.86" height="7.13" x="5.07" y="35.05" fill="none" stroke="#ffffff" stroke-linecap="round" stroke-linejoin="round" stroke-width="3" class="colorStroke222 svgStroke"></rect><path fill="none" stroke="#ffffff" stroke-linecap="round" stroke-linejoin="round" stroke-width="3" d="M4.11,42.18H59.89a1.92,1.92,0,0,1,1.92,1.92v0A13.42,13.42,0,0,1,48.4,57.52H15.61A13.42,13.42,0,0,1,2.19,44.1v0A1.92,1.92,0,0,1,4.11,42.18Z" class="colorStroke222 svgStroke"></path><path fill="none" stroke="#ffffff" stroke-linecap="round" stroke-linejoin="round" stroke-width="3" d="M36.67,48.6l-8.91-6.42h26l-8.9,6.42A7,7,0,0,1,36.67,48.6Z" class="colorStroke222 svgStroke"></path></svg></g></svg>