<svg xmlns="http://www.w3.org/2000/svg" viewBox="0 0 64 64"><path d="M44.22,20.92A3.489,3.489,0,0,0,44,14.05V10a1,1,0,0,0-1-1H37.42l.49-5H45V2H37a1.015,1.015,0,0,0-1,.9L35.41,9H21a1,1,0,0,0-1,1v4.05a3.489,3.489,0,0,0-.22,6.87l-2.09,9.76a30.867,30.867,0,0,0-.69,6.5V57a5,5,0,0,0,5,5H42a5,5,0,0,0,5-5V37.18a30.867,30.867,0,0,0-.69-6.5Zm-7-9.92H42v3H36.93Zm-.49,5H43.5a1.5,1.5,0,0,1,0,3H36.44Zm-.49,5h5.95l2.17,10.1a29.752,29.752,0,0,1,.62,5.24c-.5-.1-.96-.2-1.44-.32a22.037,22.037,0,0,0-5.88-.7,24.97,24.97,0,0,0-2.84.14ZM22,11H35.21l-.29,3H22Zm-3,6.5A1.5,1.5,0,0,1,20.5,16H34.72l-.29,3H20.5A1.5,1.5,0,0,1,19,17.5Zm.64,13.6L21.81,21H34.23L32.78,35.79c-.35.08-.68.16-1.01.24a20.131,20.131,0,0,1-5.44.65,20.1,20.1,0,0,1-5.43-.65c-.58-.14-1.17-.28-1.86-.4A28.823,28.823,0,0,1,19.64,31.1ZM45,57a3.009,3.009,0,0,1-3,3H22a3.009,3.009,0,0,1-3-3V37.66c.5.1.96.2,1.43.32a22.214,22.214,0,0,0,5.9.7,21.709,21.709,0,0,0,5.9-.71c.12-.03.23-.05.34-.08L31,53.9l2,.2,1.62-16.6a22.311,22.311,0,0,1,3.04-.18,19.676,19.676,0,0,1,5.42.65c.59.14,1.2.28,1.92.4Z"/></svg>