<svg id="SvgjsSvg1014" width="288" height="288" xmlns="http://www.w3.org/2000/svg" version="1.1" xmlns:xlink="http://www.w3.org/1999/xlink" xmlns:svgjs="http://svgjs.com/svgjs"><defs id="SvgjsDefs1015"></defs><g id="SvgjsG1016" transform="matrix(1,0,0,1,0,0)"><svg xmlns="http://www.w3.org/2000/svg" data-name="Layer 1" viewBox="0 0 32 32" width="288" height="288"><path d="M7.5,18a.5.5,0,1,0,.5.5A.5.5,0,0,0,7.5,18Zm3,1a.5.5,0,1,0,.5.5A.5.5,0,0,0,10.5,19Zm-6,0a.5.5,0,1,0,.5.5A.5.5,0,0,0,4.5,19Zm3,1a.5.5,0,1,0,.5.5A.5.5,0,0,0,7.5,20Zm10,0a.5.5,0,1,0,.5.5A.5.5,0,0,0,17.5,20ZM29,10V8H24V3.38L26.68.71,26,0,23,3l0,0V8H18v2H15v3h1.05l.32,3.08A4.94,4.94,0,0,0,15.5,16h-9A5.51,5.51,0,0,0,1,21.5v.59a1.49,1.49,0,0,0,0,2.82v1.68A1.48,1.48,0,0,0,1,29.4,3,3,0,0,0,4,32H29l2-19H32V10ZM19,9h9v1H19ZM2,21.5A4.51,4.51,0,0,1,6.5,17h9A4.51,4.51,0,0,1,20,21.5V22H2ZM1.5,23h19a.5.5,0,0,1,0,1H1.5a.5.5,0,0,1,0-1ZM2,26.5V25H20.36v1.5Zm6.07,1L7,28.82,5.93,27.5Zm1.29,0H20.51a.49.49,0,1,1,0,1H8.57Zm-7.87,1a.49.49,0,1,1,0-1H4.64l.79,1ZM18,31H4a2,2,0,0,1-2-1.53H6.24L7,30.4l.76-.93H19.94A2,2,0,0,1,18,31Zm10.08,0H20.19a3,3,0,0,0,.61-1h7.36Zm.21-2H21.57A1.44,1.44,0,0,0,22,28a1.47,1.47,0,0,0-.64-1.21V24.72a1.16,1.16,0,0,0,.28-.26,3.5,3.5,0,1,0-1-4.95,5.52,5.52,0,0,0-3.21-3.16L17.06,13H29.94ZM21,22.09V21.5a2.52,2.52,0,1,1,1,2A1.51,1.51,0,0,0,21,22.09ZM31,12H16V11H31ZM14.5,20a.5.5,0,1,0,.5.5A.5.5,0,0,0,14.5,20Zm1-2a.5.5,0,1,0,.5.5A.5.5,0,0,0,15.5,18Z" fill="#ffffff" class="color000 svgShape"></path></svg></g></svg>